<svg width="20" height="20" viewBox="0 0 20 20" fill="none" xmlns="http://www.w3.org/2000/svg">
<g id="return-box-_1_ 1" clip-path="url(#clip0_12_222)">
<g id="Group">
<g id="Vector">
<mask id="path-1-inside-1_12_222" fill="white">
<path d="M8.30078 0.300819C7.61328 0.668007 0.121094 5.02348 0.0703125 5.08598C0.00390625 5.16019 0 5.45316 0 10C0 14.5469 0.00390625 14.8399 0.0703125 14.9141C0.125 14.9805 7.82813 19.4532 8.31641 19.7032C8.38672 19.7422 8.49609 19.7657 8.55078 19.7578C8.64063 19.7461 9.79688 19.086 14.9609 16.1016C15.4219 15.836 16.0352 15.4805 16.3203 15.3164C16.6094 15.1524 16.8828 14.9805 16.9297 14.9336C16.9736 14.8897 17.047 14.8981 17.0799 14.9509L17.1445 15.0547C17.3984 15.4766 17.4375 15.6328 17.4414 16.1914C17.4414 16.6641 17.4336 16.7188 17.3281 16.9727C17.2656 17.1211 17.1523 17.3438 17.0781 17.461C16.7852 17.9141 16.1719 18.418 15.5234 18.7422C15.2734 18.8672 15.2344 18.918 15.2344 19.1055C15.2344 19.2618 15.3594 19.375 15.5313 19.375C15.8359 19.375 16.7695 19.0782 17.3086 18.8086C18.043 18.4375 18.8125 17.7696 19.2305 17.1407C20.1094 15.8203 20.2383 14.2305 19.5703 12.8672C19.125 11.9532 18.3789 11.2188 17.3906 10.7266C17.1701 10.6139 17.0313 10.3871 17.0313 10.1395V7.9141C17.0313 6.23051 17.0156 5.24223 16.9922 5.17191C16.9688 5.10941 16.9141 5.03129 16.8633 5.00004C16.8164 4.97269 14.9414 3.88676 12.6953 2.58988C10.1641 1.12894 8.57813 0.234413 8.51563 0.234413C8.46094 0.238319 8.36719 0.265663 8.30078 0.300819ZM9.66406 1.56254C10.2773 1.9141 10.7656 2.21879 10.75 2.23051C10.6406 2.33598 3.25 6.56254 3.19922 6.55082C3.08594 6.51957 0.976563 5.29301 0.988281 5.26566C1 5.2266 8.48828 0.898476 8.52344 0.910194C8.53516 0.914101 9.05078 1.20707 9.66406 1.56254ZM12.2969 3.08207C12.7773 3.35941 13.1523 3.59379 13.1367 3.60551C12.8043 3.81149 6.66467 7.34395 5.72548 7.87487C5.64309 7.92144 5.56198 7.92348 5.47856 7.8788C5.09563 7.67371 3.98024 7.03231 3.91797 6.9766C3.88281 6.94535 4.82813 6.37894 7.62891 4.76176C9.2 3.84999 10.5588 3.06693 11.1251 2.7422C11.3116 2.63527 11.5038 2.63152 11.6912 2.73674C11.8508 2.82632 12.0642 2.94778 12.2969 3.08207ZM14.9219 4.59769C15.265 4.79497 15.5727 4.97577 15.7806 5.10067C15.9649 5.2114 15.9626 5.33092 15.7772 5.43978C15.2143 5.77035 13.8571 6.55674 12.2813 7.46488L9.4563 9.09252C8.87151 9.42946 8.15165 9.42994 7.56641 9.09379C7.04688 8.79301 6.53906 8.50004 6.4375 8.44144C6.30623 8.37076 6.31325 8.28125 6.44173 8.2056C7.44493 7.61485 12.0944 4.91557 13.4252 4.15128C13.66 4.01638 13.9044 4.01452 14.1398 4.14844C14.345 4.26516 14.6211 4.42364 14.9219 4.59769ZM1.78516 6.48051L1.89495 6.54397C2.50931 6.89908 2.88951 7.55313 2.89405 8.26273L2.89844 8.94926L2.90929 10.6459C2.90984 10.7325 2.94538 10.8151 3.00781 10.875C3.0625 10.9297 3.64063 11.2813 4.29688 11.6563C5.56641 12.3868 5.65625 12.4219 5.8125 12.2539C5.89844 12.1641 5.89844 12.1446 5.90625 10.5157L5.90863 10.1812C5.91281 9.59345 6.54839 9.22777 7.05859 9.51957L7.19764 9.59957C7.81736 9.95612 8.19961 10.6164 8.20025 11.3313L8.20313 14.5391C8.20313 16.9414 8.19531 18.9063 8.18359 18.9063C8.17188 18.9063 7.42969 18.4805 6.53516 17.9649C5.63672 17.4453 4.41016 16.7383 3.80859 16.3907C3.20703 16.043 2.24609 15.4844 1.67188 15.1524L1.62854 15.1275C1.00775 14.7708 0.625 14.1094 0.625 13.3934V10.1836C0.625 7.78129 0.636719 5.82426 0.65625 5.83207C0.671875 5.83988 1.17969 6.13285 1.78516 6.48051ZM16.4063 8.06644C16.4063 9.30082 16.3945 10.3125 16.3828 10.3125C16.3711 10.3125 16.2266 10.2774 16.0625 10.2344C15.6523 10.1328 15.1133 10.0469 14.6484 10.0157C14.4284 10.0003 14.2578 9.81729 14.2578 9.59674V9.42582C14.2578 8.88285 14.2539 8.85941 14.1602 8.76957C13.9609 8.56644 13.9336 8.58207 12.625 9.67582C10.1484 11.7461 10.0469 11.836 10.0313 11.9297C9.98828 12.1563 9.96484 12.1407 13.3125 14.5821C13.8867 15 13.9922 15.0352 14.1602 14.8633C14.2539 14.7735 14.2578 14.7539 14.2578 14.1797V13.685C14.2578 13.6374 14.3007 13.6013 14.3477 13.6094C14.3945 13.6211 14.543 13.6407 14.6797 13.6524C15.1641 13.6993 15.8008 13.9063 16.2031 14.1485C16.3828 14.2578 16.4063 14.2891 16.4063 14.4024C16.4063 14.5078 16.3789 14.5469 16.2617 14.625C16.1172 14.7149 9.08984 18.7735 8.91797 18.8633C8.87707 18.8847 8.82813 18.855 8.82813 18.8089V14.543V11.0227C8.82813 10.4988 9.10822 10.0149 9.5625 9.75394C9.96484 9.52347 11.6563 8.54691 13.3203 7.58207C14.6022 6.83883 15.7125 6.19759 16.1638 5.94223C16.3062 5.86171 16.3877 5.90567 16.3916 6.06915C16.4005 6.44147 16.4063 7.19897 16.4063 8.06644ZM4.41406 7.99613C4.94584 8.30311 5.27344 8.87049 5.27344 9.48451V9.98832V11.3677C5.27344 11.4218 5.21529 11.456 5.16797 11.4297C4.97656 11.3321 3.61328 10.5391 3.56641 10.5C3.52734 10.4688 3.51563 10.1172 3.51563 8.98051C3.51563 8.1641 3.52344 7.50004 3.53516 7.50004C3.54688 7.50004 3.94141 7.72269 4.41406 7.99613ZM13.6758 10.4571C13.7422 10.586 13.8789 10.6172 14.4531 10.6407C16.2109 10.7071 17.6914 11.3438 18.5391 12.3985C18.8398 12.7696 19.1484 13.3711 19.2656 13.8086C19.3828 14.2539 19.3828 15.1211 19.2656 15.5547C19.1484 15.9922 18.9688 16.3907 18.7422 16.7422C18.5195 17.0821 17.9766 17.6485 17.6758 17.8516L17.6149 17.893C17.5878 17.9115 17.5553 17.8784 17.5742 17.8516C17.7383 17.6016 17.9609 17.0938 18.0273 16.8086C18.1289 16.3946 18.0938 15.711 17.9531 15.3125C17.4688 13.9336 15.9648 13.0079 14.1914 12.9922C13.6602 12.9883 13.6602 12.9883 13.6328 13.5782C13.6245 13.7701 13.4055 13.8751 13.2506 13.7616L12.2383 13.0196C11.4805 12.4649 10.8672 12 10.8711 11.9844C10.875 11.9688 11.4961 11.4414 12.2461 10.8086L13.3436 9.8899C13.4531 9.79817 13.6202 9.87285 13.625 10.0157C13.6289 10.211 13.6523 10.4102 13.6758 10.4571Z"/>
</mask>
<path d="M8.30078 0.300819C7.61328 0.668007 0.121094 5.02348 0.0703125 5.08598C0.00390625 5.16019 0 5.45316 0 10C0 14.5469 0.00390625 14.8399 0.0703125 14.9141C0.125 14.9805 7.82813 19.4532 8.31641 19.7032C8.38672 19.7422 8.49609 19.7657 8.55078 19.7578C8.64063 19.7461 9.79688 19.086 14.9609 16.1016C15.4219 15.836 16.0352 15.4805 16.3203 15.3164C16.6094 15.1524 16.8828 14.9805 16.9297 14.9336C16.9736 14.8897 17.047 14.8981 17.0799 14.9509L17.1445 15.0547C17.3984 15.4766 17.4375 15.6328 17.4414 16.1914C17.4414 16.6641 17.4336 16.7188 17.3281 16.9727C17.2656 17.1211 17.1523 17.3438 17.0781 17.461C16.7852 17.9141 16.1719 18.418 15.5234 18.7422C15.2734 18.8672 15.2344 18.918 15.2344 19.1055C15.2344 19.2618 15.3594 19.375 15.5313 19.375C15.8359 19.375 16.7695 19.0782 17.3086 18.8086C18.043 18.4375 18.8125 17.7696 19.2305 17.1407C20.1094 15.8203 20.2383 14.2305 19.5703 12.8672C19.125 11.9532 18.3789 11.2188 17.3906 10.7266C17.1701 10.6139 17.0313 10.3871 17.0313 10.1395V7.9141C17.0313 6.23051 17.0156 5.24223 16.9922 5.17191C16.9688 5.10941 16.9141 5.03129 16.8633 5.00004C16.8164 4.97269 14.9414 3.88676 12.6953 2.58988C10.1641 1.12894 8.57813 0.234413 8.51563 0.234413C8.46094 0.238319 8.36719 0.265663 8.30078 0.300819ZM9.66406 1.56254C10.2773 1.9141 10.7656 2.21879 10.75 2.23051C10.6406 2.33598 3.25 6.56254 3.19922 6.55082C3.08594 6.51957 0.976563 5.29301 0.988281 5.26566C1 5.2266 8.48828 0.898476 8.52344 0.910194C8.53516 0.914101 9.05078 1.20707 9.66406 1.56254ZM12.2969 3.08207C12.7773 3.35941 13.1523 3.59379 13.1367 3.60551C12.8043 3.81149 6.66467 7.34395 5.72548 7.87487C5.64309 7.92144 5.56198 7.92348 5.47856 7.8788C5.09563 7.67371 3.98024 7.03231 3.91797 6.9766C3.88281 6.94535 4.82813 6.37894 7.62891 4.76176C9.2 3.84999 10.5588 3.06693 11.1251 2.7422C11.3116 2.63527 11.5038 2.63152 11.6912 2.73674C11.8508 2.82632 12.0642 2.94778 12.2969 3.08207ZM14.9219 4.59769C15.265 4.79497 15.5727 4.97577 15.7806 5.10067C15.9649 5.2114 15.9626 5.33092 15.7772 5.43978C15.2143 5.77035 13.8571 6.55674 12.2813 7.46488L9.4563 9.09252C8.87151 9.42946 8.15165 9.42994 7.56641 9.09379C7.04688 8.79301 6.53906 8.50004 6.4375 8.44144C6.30623 8.37076 6.31325 8.28125 6.44173 8.2056C7.44493 7.61485 12.0944 4.91557 13.4252 4.15128C13.66 4.01638 13.9044 4.01452 14.1398 4.14844C14.345 4.26516 14.6211 4.42364 14.9219 4.59769ZM1.78516 6.48051L1.89495 6.54397C2.50931 6.89908 2.88951 7.55313 2.89405 8.26273L2.89844 8.94926L2.90929 10.6459C2.90984 10.7325 2.94538 10.8151 3.00781 10.875C3.0625 10.9297 3.64063 11.2813 4.29688 11.6563C5.56641 12.3868 5.65625 12.4219 5.8125 12.2539C5.89844 12.1641 5.89844 12.1446 5.90625 10.5157L5.90863 10.1812C5.91281 9.59345 6.54839 9.22777 7.05859 9.51957L7.19764 9.59957C7.81736 9.95612 8.19961 10.6164 8.20025 11.3313L8.20313 14.5391C8.20313 16.9414 8.19531 18.9063 8.18359 18.9063C8.17188 18.9063 7.42969 18.4805 6.53516 17.9649C5.63672 17.4453 4.41016 16.7383 3.80859 16.3907C3.20703 16.043 2.24609 15.4844 1.67188 15.1524L1.62854 15.1275C1.00775 14.7708 0.625 14.1094 0.625 13.3934V10.1836C0.625 7.78129 0.636719 5.82426 0.65625 5.83207C0.671875 5.83988 1.17969 6.13285 1.78516 6.48051ZM16.4063 8.06644C16.4063 9.30082 16.3945 10.3125 16.3828 10.3125C16.3711 10.3125 16.2266 10.2774 16.0625 10.2344C15.6523 10.1328 15.1133 10.0469 14.6484 10.0157C14.4284 10.0003 14.2578 9.81729 14.2578 9.59674V9.42582C14.2578 8.88285 14.2539 8.85941 14.1602 8.76957C13.9609 8.56644 13.9336 8.58207 12.625 9.67582C10.1484 11.7461 10.0469 11.836 10.0313 11.9297C9.98828 12.1563 9.96484 12.1407 13.3125 14.5821C13.8867 15 13.9922 15.0352 14.1602 14.8633C14.2539 14.7735 14.2578 14.7539 14.2578 14.1797V13.685C14.2578 13.6374 14.3007 13.6013 14.3477 13.6094C14.3945 13.6211 14.543 13.6407 14.6797 13.6524C15.1641 13.6993 15.8008 13.9063 16.2031 14.1485C16.3828 14.2578 16.4063 14.2891 16.4063 14.4024C16.4063 14.5078 16.3789 14.5469 16.2617 14.625C16.1172 14.7149 9.08984 18.7735 8.91797 18.8633C8.87707 18.8847 8.82813 18.855 8.82813 18.8089V14.543V11.0227C8.82813 10.4988 9.10822 10.0149 9.5625 9.75394C9.96484 9.52347 11.6563 8.54691 13.3203 7.58207C14.6022 6.83883 15.7125 6.19759 16.1638 5.94223C16.3062 5.86171 16.3877 5.90567 16.3916 6.06915C16.4005 6.44147 16.4063 7.19897 16.4063 8.06644ZM4.41406 7.99613C4.94584 8.30311 5.27344 8.87049 5.27344 9.48451V9.98832V11.3677C5.27344 11.4218 5.21529 11.456 5.16797 11.4297C4.97656 11.3321 3.61328 10.5391 3.56641 10.5C3.52734 10.4688 3.51563 10.1172 3.51563 8.98051C3.51563 8.1641 3.52344 7.50004 3.53516 7.50004C3.54688 7.50004 3.94141 7.72269 4.41406 7.99613ZM13.6758 10.4571C13.7422 10.586 13.8789 10.6172 14.4531 10.6407C16.2109 10.7071 17.6914 11.3438 18.5391 12.3985C18.8398 12.7696 19.1484 13.3711 19.2656 13.8086C19.3828 14.2539 19.3828 15.1211 19.2656 15.5547C19.1484 15.9922 18.9688 16.3907 18.7422 16.7422C18.5195 17.0821 17.9766 17.6485 17.6758 17.8516L17.6149 17.893C17.5878 17.9115 17.5553 17.8784 17.5742 17.8516C17.7383 17.6016 17.9609 17.0938 18.0273 16.8086C18.1289 16.3946 18.0938 15.711 17.9531 15.3125C17.4688 13.9336 15.9648 13.0079 14.1914 12.9922C13.6602 12.9883 13.6602 12.9883 13.6328 13.5782C13.6245 13.7701 13.4055 13.8751 13.2506 13.7616L12.2383 13.0196C11.4805 12.4649 10.8672 12 10.8711 11.9844C10.875 11.9688 11.4961 11.4414 12.2461 10.8086L13.3436 9.8899C13.4531 9.79817 13.6202 9.87285 13.625 10.0157C13.6289 10.211 13.6523 10.4102 13.6758 10.4571Z" fill="white" stroke="white" stroke-width="8" mask="url(#path-1-inside-1_12_222)"/>
</g>
</g>
</g>
<defs>
<clipPath id="clip0_12_222">
<rect width="20" height="20" fill="white"/>
</clipPath>
</defs>
</svg>
