<svg width="202" height="32" viewBox="0 0 202 32" fill="none" xmlns="http://www.w3.org/2000/svg">
<g id="Group 48096784">
<g id="Group">
<g id="Group_2">
<path id="Vector" d="M56.0621 0.273132H65.112L65.4089 9.00472H65.5229L69.283 0.273132H78.3091L75.0716 16.2304H69.6013L72.1547 3.69356H72.017L66.3186 16.2304H61.2355L60.7343 3.69356H60.5752L58.0217 16.2304H52.8246L56.0621 0.273132Z" fill="#1A355A"/>
<path id="Vector_2" d="M89.0692 0C90.5728 0 91.8127 0.201895 92.7842 0.60332C93.7557 1.00712 94.5229 1.51543 95.0859 2.13063C95.6488 2.74584 96.036 3.41567 96.2474 4.13776C96.4612 4.85985 96.5657 5.54869 96.5657 6.2019C96.5657 6.73396 96.5015 7.35629 96.3709 8.07126C96.2426 8.78622 96.0217 9.52731 95.7106 10.2945C95.3994 11.0618 94.9766 11.8147 94.4469 12.5511C93.9148 13.2874 93.2426 13.9501 92.4303 14.5344C91.6179 15.1188 90.6441 15.5938 89.5134 15.9596C88.3804 16.323 87.0716 16.5059 85.5823 16.5059C84.169 16.5059 82.9861 16.3207 82.0384 15.9478C81.0882 15.5748 80.3329 15.0926 79.7699 14.5012C79.207 13.9074 78.808 13.2446 78.5728 12.5059C78.3376 11.7696 78.2189 11.0356 78.2189 10.3064C78.2189 9.77435 78.283 9.14726 78.4136 8.42517C78.5419 7.70308 78.7676 6.96199 79.0859 6.2019C79.4042 5.4418 79.8293 4.68883 80.3614 3.94537C80.8935 3.2019 81.5585 2.53682 82.3566 1.95012C83.1547 1.36579 84.1072 0.893107 85.2165 0.536812C86.3258 0.178142 87.6108 0 89.0692 0ZM88.2949 3.82898C88.1286 3.82898 87.9267 3.85511 87.6916 3.90974C87.4564 3.96437 87.2094 4.07838 86.9505 4.25178C86.6916 4.42755 86.4326 4.67458 86.1761 4.99287C85.9172 5.31116 85.6821 5.73871 85.4683 6.26841C85.378 6.52731 85.283 6.83135 85.1832 7.18052C85.0835 7.52969 84.998 7.89549 84.922 8.27554C84.846 8.65558 84.7842 9.03563 84.7391 9.41568C84.6939 9.79573 84.6702 10.1449 84.6702 10.4632C84.6702 10.981 84.7414 11.3872 84.8863 11.6817C85.0312 11.9786 85.2022 12.1995 85.3994 12.342C85.5965 12.4869 85.7984 12.5772 86.0027 12.6152C86.207 12.6532 86.3709 12.6722 86.492 12.6722C86.6892 12.6722 86.9148 12.639 87.1642 12.5701C87.416 12.5012 87.6702 12.3753 87.9267 12.1948C88.1856 12.0119 88.435 11.7648 88.6797 11.4537C88.922 11.1425 89.1357 10.7363 89.3186 10.2351C89.4089 10.0071 89.5015 9.71021 89.5918 9.34679C89.6821 8.98337 89.7699 8.60332 89.8531 8.20665C89.9362 7.81235 90.0004 7.42043 90.0479 7.03325C90.0954 6.64608 90.1167 6.29929 90.1167 5.99525C90.1167 5.50831 90.0479 5.12114 89.9125 4.83372C89.7747 4.54631 89.6132 4.32779 89.4232 4.18527C89.2331 4.04038 89.0312 3.94536 88.8198 3.90023C88.606 3.85273 88.4303 3.82898 88.2949 3.82898Z" fill="#1A355A"/>
<path id="Vector_3" d="M99.7153 0.273132H108.81L109.54 11.2826H109.63L111.865 0.273132H117.131L113.893 16.2304H104.889L104.136 4.90021H104.045L101.744 16.2304H96.4778L99.7153 0.273132Z" fill="#1A355A"/>
<path id="Vector_4" d="M135.366 0.273132L134.409 4.99285H129.029L126.749 16.2304H120.639L122.92 4.99285H117.54L118.497 0.273132H135.366Z" fill="#1A355A"/>
<path id="Vector_5" d="M147.447 0.273132C147.993 0.273132 148.532 0.344392 149.064 0.489285C149.597 0.634178 150.074 0.855081 150.502 1.14962C150.927 1.44653 151.269 1.82657 151.528 2.28976C151.787 2.75294 151.915 3.29689 151.915 3.91922C151.915 4.52729 151.796 5.09736 151.561 5.62943C151.326 6.16149 151.003 6.63655 150.592 7.0546C150.181 7.47266 149.692 7.81707 149.121 8.09261C148.551 8.36577 147.941 8.54867 147.288 8.63893L147.264 8.68406C147.537 8.71494 147.827 8.79095 148.131 8.91209C148.435 9.03323 148.713 9.209 148.962 9.43703C149.214 9.66506 149.426 9.95485 149.601 10.304C149.777 10.6532 149.863 11.0879 149.863 11.6033L149.931 16.2304H143.549L143.732 12.2423C143.746 11.8931 143.701 11.6128 143.594 11.399C143.487 11.1852 143.352 11.0261 143.183 10.9192C143.017 10.8123 142.834 10.7458 142.637 10.7149C142.44 10.6841 142.264 10.6698 142.112 10.6698H140.744L139.604 16.2327H133.494L136.732 0.275503H147.447V0.273132ZM141.155 7.24938H142.658C143.312 7.24938 143.829 7.17337 144.209 7.02135C144.589 6.86933 144.874 6.69118 145.064 6.48453C145.255 6.27788 145.376 6.06173 145.43 5.83607C145.483 5.60805 145.511 5.4109 145.511 5.24225C145.511 4.89308 145.423 4.6223 145.25 4.43227C145.074 4.24225 144.874 4.10211 144.646 4.00947C144.418 3.91921 144.19 3.86458 143.962 3.85033C143.734 3.83608 143.568 3.82658 143.461 3.82658H141.865L141.155 7.24938Z" fill="#1A355A"/>
<path id="Vector_6" d="M168.578 0.273127L167.825 4.03322H160.005L159.525 6.33488H167.003L166.274 9.98096H158.796L158.295 12.4655H166.274L165.499 16.2256H151.549L154.787 0.268372H168.578V0.273127Z" fill="#1A355A"/>
<path id="Vector_7" d="M183.257 0.273132L185.696 16.2304H179.269L178.882 12.81H174.072L172.316 16.2304H166.207L175.029 0.273132H183.257ZM178.219 4.05698L175.551 9.04985H178.948L178.309 4.05698H178.219Z" fill="#1A355A"/>
<path id="Vector_8" d="M190.074 0.273132H196.183L193.903 11.5107H201.426L200.468 16.2304H186.836L190.074 0.273132Z" fill="#1A355A"/>
</g>
</g>
<g id="Group_3">
<g id="Group_4">
<path id="Vector_9" d="M54.6417 31.9549L55.8127 26.0594H53.5419L53.6322 25.6437H58.6369L58.5561 26.0594H56.2854L55.1048 31.9549H54.6417Z" fill="#1A355A"/>
<path id="Vector_10" d="M63.0526 31.9549H62.5918L63.8531 25.6437H64.3139L63.0526 31.9549ZM67.9291 28.9525H63.5918L63.6725 28.5464H68.0098L67.9291 28.9525ZM68.5348 25.6437H68.9956L67.7343 31.9549H67.2735L68.5348 25.6437Z" fill="#1A355A"/>
<path id="Vector_11" d="M74.0146 31.9549L75.2759 25.6437H75.7367L74.4754 31.9549H74.0146Z" fill="#1A355A"/>
<path id="Vector_12" d="M82.5158 32C82.2094 32 81.9101 31.962 81.6179 31.8884C81.3257 31.8124 81.0645 31.7126 80.8341 31.5867C80.6037 31.4608 80.4208 31.3183 80.2878 31.1639L80.53 30.8124C80.663 30.962 80.8341 31.0974 81.0478 31.2185C81.2616 31.3397 81.4991 31.4323 81.7604 31.4988C82.0217 31.5653 82.2854 31.5986 82.549 31.5986C82.9386 31.5986 83.2877 31.544 83.5894 31.4371C83.8935 31.3278 84.1286 31.171 84.2973 30.9644C84.4659 30.7577 84.549 30.5036 84.549 30.2019C84.549 29.9786 84.4873 29.7981 84.3638 29.6603C84.2402 29.5226 84.0811 29.4086 83.8863 29.3183C83.6915 29.228 83.4754 29.152 83.2379 29.0879C83.0003 29.0238 82.7628 28.9549 82.5253 28.8765C82.2877 28.7981 82.0716 28.7031 81.8768 28.5915C81.6821 28.4798 81.5229 28.3349 81.3994 28.1544C81.2759 27.9739 81.2141 27.7458 81.2141 27.4703C81.2141 27.0736 81.321 26.7363 81.5348 26.4608C81.7486 26.1853 82.0383 25.9715 82.4041 25.8242C82.7699 25.677 83.188 25.6033 83.6583 25.6033C84.0193 25.6033 84.3685 25.6508 84.7034 25.7435C85.0407 25.8361 85.3258 25.9739 85.5609 26.1544L85.3448 26.5321C85.1215 26.3634 84.8649 26.2352 84.5704 26.1449C84.2759 26.0546 83.9671 26.0095 83.6417 26.0095C83.2569 26.0095 82.9148 26.0641 82.6179 26.1758C82.321 26.2874 82.0882 26.4489 81.9243 26.658C81.7581 26.8694 81.6773 27.1235 81.6773 27.4252C81.6773 27.6485 81.7367 27.829 81.8578 27.9715C81.979 28.114 82.1357 28.2304 82.3305 28.3231C82.5253 28.4157 82.7438 28.4964 82.9837 28.563C83.2236 28.6295 83.4611 28.7007 83.6963 28.7744C83.9315 28.8504 84.1476 28.943 84.3448 29.0546C84.5419 29.1663 84.7034 29.3088 84.8269 29.4822C84.9505 29.6556 85.0122 29.8789 85.0122 30.1497C85.0122 30.5535 84.9029 30.8931 84.6844 31.1687C84.4659 31.4442 84.1666 31.6532 83.7913 31.7957C83.416 31.9288 82.9908 32 82.5158 32Z" fill="#1A355A"/>
<path id="Vector_13" d="M96.7343 31.9549L97.9956 25.6437H98.4564L97.1951 31.9549H96.7343Z" fill="#1A355A"/>
<path id="Vector_14" d="M105.235 32C104.929 32 104.63 31.962 104.338 31.8884C104.045 31.8124 103.784 31.7126 103.554 31.5867C103.323 31.4608 103.14 31.3183 103.007 31.1639L103.25 30.8124C103.383 30.962 103.554 31.0974 103.768 31.2185C103.981 31.3397 104.219 31.4323 104.48 31.4988C104.741 31.5653 105.005 31.5986 105.269 31.5986C105.658 31.5986 106.007 31.544 106.309 31.4371C106.613 31.3278 106.848 31.171 107.017 30.9644C107.186 30.7577 107.269 30.5036 107.269 30.2019C107.269 29.9786 107.207 29.7981 107.083 29.6603C106.96 29.5226 106.801 29.4086 106.606 29.3183C106.411 29.228 106.195 29.152 105.958 29.0879C105.72 29.0238 105.483 28.9549 105.245 28.8765C105.007 28.7981 104.791 28.7031 104.597 28.5915C104.402 28.4798 104.243 28.3349 104.119 28.1544C103.996 27.9739 103.934 27.7458 103.934 27.4703C103.934 27.0736 104.041 26.7363 104.254 26.4608C104.468 26.1853 104.758 25.9715 105.124 25.8242C105.49 25.677 105.908 25.6033 106.378 25.6033C106.739 25.6033 107.086 25.6508 107.423 25.7435C107.76 25.8361 108.045 25.9739 108.281 26.1544L108.064 26.5321C107.841 26.3634 107.582 26.2352 107.29 26.1449C106.996 26.0546 106.687 26.0095 106.361 26.0095C105.977 26.0095 105.637 26.0641 105.338 26.1758C105.041 26.2874 104.808 26.4489 104.644 26.658C104.478 26.8694 104.397 27.1235 104.397 27.4252C104.397 27.6485 104.456 27.829 104.578 27.9715C104.699 28.114 104.855 28.2304 105.05 28.3231C105.245 28.4157 105.464 28.4964 105.703 28.563C105.943 28.6295 106.181 28.7007 106.416 28.7744C106.651 28.8504 106.867 28.943 107.064 29.0546C107.264 29.1663 107.423 29.3088 107.547 29.4822C107.67 29.6556 107.732 29.8789 107.732 30.1497C107.732 30.5535 107.623 30.8931 107.404 31.1687C107.186 31.4442 106.886 31.6532 106.511 31.7957C106.136 31.9288 105.711 32 105.235 32Z" fill="#1A355A"/>
<path id="Vector_15" d="M120.931 31.9549L121.392 29.6556L121.447 29.9715L119.654 25.6437H120.131L121.744 29.5654L121.509 29.5749L124.692 25.6437H125.205L121.689 29.9882L121.851 29.6556L121.39 31.9549H120.931Z" fill="#1A355A"/>
<path id="Vector_16" d="M131.76 31.9999C131.14 31.9999 130.618 31.8907 130.188 31.6745C129.758 31.4584 129.433 31.1543 129.209 30.7648C128.986 30.3752 128.874 29.9192 128.874 29.4037C128.874 28.8931 128.962 28.4085 129.136 27.9524C129.311 27.4964 129.561 27.0902 129.889 26.7363C130.216 26.3824 130.613 26.1045 131.079 25.9026C131.544 25.7007 132.069 25.6009 132.651 25.6009C133.271 25.6009 133.796 25.7102 134.228 25.9263C134.661 26.1425 134.988 26.4465 135.212 26.836C135.435 27.2256 135.547 27.6816 135.547 28.1971C135.547 28.7078 135.459 29.1924 135.285 29.6484C135.112 30.1045 134.858 30.5106 134.528 30.8646C134.197 31.2185 133.798 31.4964 133.333 31.6983C132.867 31.9002 132.342 31.9999 131.76 31.9999ZM131.803 31.5771C132.302 31.5771 132.753 31.4893 133.155 31.3111C133.559 31.133 133.901 30.8907 134.188 30.5795C134.473 30.2707 134.694 29.9121 134.846 29.5059C134.998 29.0997 135.076 28.6698 135.076 28.2113C135.076 27.7719 134.984 27.3895 134.796 27.0617C134.608 26.7339 134.335 26.4798 133.972 26.2945C133.608 26.1116 133.157 26.0189 132.616 26.0189C132.117 26.0189 131.665 26.1068 131.264 26.285C130.86 26.4631 130.518 26.7054 130.231 27.0142C129.946 27.323 129.725 27.6817 129.568 28.0878C129.411 28.494 129.333 28.9239 129.333 29.3824C129.333 29.8147 129.426 30.1971 129.613 30.5273C129.798 30.8574 130.076 31.114 130.442 31.2992C130.81 31.4845 131.264 31.5771 131.803 31.5771Z" fill="#1A355A"/>
<path id="Vector_17" d="M143.129 32C142.559 32 142.098 31.8789 141.749 31.639C141.399 31.3991 141.167 31.0737 141.045 30.6651C140.924 30.2566 140.917 29.8005 141.019 29.2946L141.749 25.6437H142.209L141.478 29.2946C141.411 29.6081 141.395 29.9027 141.423 30.1782C141.454 30.4537 141.535 30.6984 141.668 30.9074C141.801 31.1188 141.991 31.2827 142.24 31.3991C142.49 31.5155 142.803 31.5749 143.183 31.5749C143.651 31.5749 144.048 31.4893 144.369 31.3183C144.689 31.1473 144.95 30.8955 145.152 30.5654C145.354 30.2352 145.499 29.8409 145.589 29.3848L146.338 25.6437H146.798L146.05 29.4133C145.889 30.2376 145.566 30.8742 145.081 31.3255C144.597 31.7744 143.946 32 143.129 32Z" fill="#1A355A"/>
<path id="Vector_18" d="M151.775 31.9549L153.036 25.6437H155.245C155.943 25.6437 156.483 25.7958 156.863 26.0998C157.245 26.4038 157.435 26.8314 157.435 27.3848C157.435 27.9264 157.319 28.3801 157.083 28.7506C156.848 29.1212 156.516 29.4015 156.083 29.5939C155.651 29.7863 155.136 29.8837 154.542 29.8837H152.449L152.692 29.677L152.231 31.9573H151.775V31.9549ZM152.684 29.7007L152.53 29.4751H154.54C155.309 29.4751 155.908 29.3017 156.333 28.9573C156.76 28.6129 156.972 28.0998 156.972 27.4205C156.972 26.981 156.82 26.6461 156.516 26.411C156.212 26.1758 155.777 26.0594 155.214 26.0594H153.212L153.454 25.8338L152.684 29.7007ZM156.164 31.9549L154.874 29.6651H155.38L156.67 31.9549H156.164Z" fill="#1A355A"/>
<path id="Vector_19" d="M169.958 31.9549L171.129 26.0594H168.858L168.948 25.6437H173.953L173.872 26.0594H171.599L170.418 31.9549H169.958Z" fill="#1A355A"/>
<path id="Vector_20" d="M177.91 31.9549L179.171 25.6437H179.632L178.371 31.9549H177.91Z" fill="#1A355A"/>
<path id="Vector_21" d="M184.654 31.9549L185.915 25.6437H188.124C188.822 25.6437 189.361 25.7958 189.741 26.0998C190.124 26.4038 190.314 26.8314 190.314 27.3848C190.314 27.9264 190.198 28.3801 189.962 28.7506C189.727 29.1212 189.395 29.4015 188.962 29.5939C188.53 29.7863 188.015 29.8837 187.421 29.8837H185.328L185.57 29.677L185.11 31.9573H184.654V31.9549ZM185.563 29.7007L185.409 29.4751H187.418C188.188 29.4751 188.787 29.3017 189.212 28.9573C189.639 28.6129 189.851 28.0998 189.851 27.4205C189.851 26.981 189.699 26.6461 189.395 26.411C189.091 26.1758 188.656 26.0594 188.093 26.0594H186.091L186.333 25.8338L185.563 29.7007ZM189.043 31.9549L187.753 29.6651H188.259L189.549 31.9549H189.043Z" fill="#1A355A"/>
<path id="Vector_22" d="M195.77 31.5415H199.665L199.575 31.9572H195.231L196.492 25.6461H200.711L200.62 26.0617H196.87L195.77 31.5415ZM196.309 28.5463H199.727L199.646 28.9525H196.228L196.309 28.5463Z" fill="#1A355A"/>
</g>
</g>
<g id="Group_5">
<path id="Vector_23" d="M201.19 20.791H53.0621V21.6199H201.19V20.791Z" fill="#C03545"/>
</g>
<path id="Vector_24" d="M15.8531 3.6936L0.969442 23.4181C-0.636259 25.5463 -0.199204 28.658 1.92431 30.209C3.88631 31.6414 6.57514 31.2114 8.03833 29.2281L20.9243 11.7744C20.9243 11.7744 22.302 9.37531 23.8056 11.0855V6.29456C23.8056 4.74824 23.3946 3.20905 22.5063 1.97389C21.2687 0.2518 18.8816 -1.01186 15.8531 3.6936Z" fill="#C03545"/>
<path id="Vector_25" d="M30.5063 4.21851L15.6227 23.943C14.017 26.0712 14.454 29.1829 16.5775 30.734C18.5395 32.1663 21.2284 31.7363 22.6915 29.753L35.5775 12.2993C35.5775 12.2993 36.9552 9.90022 38.4588 11.6104V6.81946C38.4588 5.27314 38.0478 3.73395 37.1595 2.49879C35.9219 0.776702 33.5348 -0.486958 30.5063 4.21851Z" fill="#C03545"/>
<path id="Vector_26" d="M31.8174 21.5226L36.4944 15.5178C37.8578 13.7672 40.264 13.3919 42.0526 14.6508C43.9742 16 44.4849 18.7316 43.1904 20.7435L39.0858 27.1259C37.8269 29.0831 35.3186 29.6413 33.4089 28.3919L32.8341 28.0166C30.7034 26.6128 30.2236 23.5677 31.8174 21.5226Z" fill="#C03545"/>
</g>
</svg>
